<svg width="300" height="300" viewBox="0 0 300 300" fill="none" xmlns="http://www.w3.org/2000/svg">
<g clip-path="url(#clip0_8_98)">
<rect width="300" height="300" rx="15" fill="white"/>
<rect width="300" height="300" fill="url(#paint0_linear_8_98)"/>
<g filter="url(#filter0_d_8_98)">
<path d="M185 115H255V240C255 248.284 248.284 255 240 255H185V115Z" fill="#F5F5F5"/>
<rect x="115" y="185" width="105" height="70" fill="#F5F5F5"/>
<path d="M45 185H150V255H60C51.7157 255 45 248.284 45 240V185Z" fill="#F5F5F5"/>
<rect x="115" y="115" width="70" height="140" fill="#F5F5F5"/>
<rect x="185" y="80" width="70" height="105" fill="#F5F5F5"/>
<path d="M185 45H240C248.284 45 255 51.7157 255 60V185H185V45Z" fill="#F5F5F5"/>
</g>
</g>
<defs>
<filter id="filter0_d_8_98" x="20" y="20" width="260" height="260" filterUnits="userSpaceOnUse" color-interpolation-filters="sRGB">
<feFlood flood-opacity="0" result="BackgroundImageFix"/>
<feColorMatrix in="SourceAlpha" type="matrix" values="0 0 0 0 0 0 0 0 0 0 0 0 0 0 0 0 0 0 127 0" result="hardAlpha"/>
<feOffset/>
<feGaussianBlur stdDeviation="12.5"/>
<feComposite in2="hardAlpha" operator="out"/>
<feColorMatrix type="matrix" values="0 0 0 0 0 0 0 0 0 0 0 0 0 0 0 0 0 0 0.25 0"/>
<feBlend mode="normal" in2="BackgroundImageFix" result="effect1_dropShadow_8_98"/>
<feBlend mode="normal" in="SourceGraphic" in2="effect1_dropShadow_8_98" result="shape"/>
</filter>
<linearGradient id="paint0_linear_8_98" x1="0" y1="0" x2="300" y2="300" gradientUnits="userSpaceOnUse">
<stop stop-color="#FF72B5"/>
<stop offset="1" stop-color="#FF9B41"/>
</linearGradient>
<clipPath id="clip0_8_98">
<rect width="300" height="300" rx="15" fill="white"/>
</clipPath>
</defs>
</svg>
